<?xml version="1.0" encoding="utf-8" ?><svg xmlns="http://www.w3.org/2000/svg" xmlns:xlink="http://www.w3.org/1999/xlink" width="32" height="32" viewBox="0 0 32 32"><path fill="#2A2A2A" transform="scale(0.03125 0.03125)" d="M0 0L1024 0L1024 1024L0 1024L0 0Z"/><path transform="scale(0.03125 0.03125)" d="M914.067 49.4892C914.564 49.4404 914.827 49.3628 915.309 49.5007C917.356 50.0864 918.74 53.0759 919.743 54.8096C918.433 67.4253 915.507 79.9752 913.532 92.5188C908.284 126.218 902.797 159.88 897.071 193.502L850.975 480.652L827.619 626.112L822.466 658.365C821.629 663.702 821.398 670.674 819.391 675.587C818.897 676.797 816.658 677.678 815.523 678.22C805.449 683.034 794.8 687.009 784.554 691.501C759.056 702.72 733.471 713.743 707.804 724.571L325.151 887.859L192.234 944.83C166.895 955.639 141.689 967.273 115.851 976.828C113.279 975.554 111.237 973.881 109.166 971.936C111.033 964.464 111.731 956.612 112.927 949L119.255 909.336L136.477 796.883L183.706 480.834L200.744 363.783C203.6 344.31 205.796 324.433 209.509 305.122C214.755 301.703 221.955 299.816 227.857 297.662L265.884 284.103L373.315 245.102L707.665 124.068L842.449 75.6024C866.344 66.9689 890.424 58.8006 914.067 49.4892Z"/><path fill="#FEFEFE" transform="scale(0.03125 0.03125)" d="M912.436 57.0599C912.479 57.1025 912.536 57.1343 912.566 57.1876C913.291 58.5137 912.871 60.0744 912.648 61.5142L813.83 672.16L340.528 874.401L200.311 934.293C182.391 942.117 164.412 949.803 146.374 957.352C136.856 961.378 127.357 965.738 117.639 969.254C117.549 969.146 117.443 969.05 117.368 968.931C117.033 968.408 116.966 967.868 117.023 967.265C118.133 955.675 120.545 943.902 122.315 932.373L133.717 857.716L215.657 308.788C260.591 291.937 306.093 276.369 351.233 260.052L636.028 156.962L815.787 92.0983C840.908 82.7005 866.127 73.5649 891.438 64.693C898.459 62.2189 905.347 59.3312 912.436 57.0599Z"/><path transform="scale(0.03125 0.03125)" d="M881.708 94.423L883.011 94.6027C883.119 94.8081 883.285 94.9923 883.335 95.2189C883.615 96.4774 880.148 112.929 879.719 115.565L863.688 215.512L792.636 653.324C787.049 655.353 781.639 658.154 776.173 660.513L740.636 675.833L631.659 722.849L310.556 860.55L191.023 911.854L163.962 923.355C159.392 925.318 154.075 928.334 149.24 929.366C147.743 928.92 147.229 928.025 146.362 926.825C146.969 920.111 148.303 913.373 149.304 906.697L155.585 865.857C161.362 829.098 166.949 792.31 172.345 755.493L235.708 328.455C247.509 323.179 260.38 319.366 272.559 314.925L362.153 282.727C363.844 278.001 365.535 273.187 369.357 269.704C371.852 267.431 375.032 266.154 378.426 266.447C382.79 266.824 386.272 269.399 389.053 272.605L705.663 158.2C764.501 137.376 823.184 116.116 881.708 94.423Z"/><path fill="#2A2A2A" transform="scale(0.03125 0.03125)" d="M874.185 103.984C874.733 104.135 874.411 103.983 874.948 104.73C874.617 110.462 873.216 116.355 872.256 122.02C870.703 131.175 869.23 140.343 867.835 149.524L848.596 268.549C836.239 348.545 823.269 428.446 809.687 508.243C804.132 543.781 798.303 579.276 792.199 614.724C790.28 625.979 788.954 637.433 786.731 648.616C782.071 651.796 775.97 653.736 770.753 655.912C762.717 659.227 754.72 662.637 746.765 666.143C704.798 684.53 662.698 702.611 620.468 720.386L343.662 839.301L212.407 895.485C193.005 903.857 173.405 911.677 154.214 920.541C156.704 906.19 158.482 891.677 160.736 877.281C168.62 827.812 176.059 778.273 183.052 728.67L214.693 519.743C220.74 476.519 227.09 433.337 233.742 390.201C236.578 371.386 238.303 351.606 242.242 333.052C281.568 319.132 320.618 304.578 360.069 290.994L280.545 552.75L217.659 754.863L201.97 806.073C198.935 815.817 195.598 825.494 192.829 835.317C191.818 838.906 190.649 842.302 191.845 846.013C193.06 849.783 195.293 852.512 198.907 854.184C200.574 854.956 202.305 855.401 204.147 855.15C210.499 854.283 217.284 850.762 223.285 848.473L253.639 837.005C262.709 833.609 272.983 830.647 281.501 826.125C284.895 824.323 286.664 822.628 288.269 819.151C291.243 812.707 292.879 805.393 294.859 798.575L304.047 766.932L333.061 667.428C366.285 655.472 399.906 644.661 433.092 632.6C437.812 647.521 443.842 661.95 449.205 676.64C456.9 697.721 464.171 719.105 472.887 739.791C474.889 744.541 476.096 748.098 481.277 750.021C484.038 751.046 486.867 750.707 489.672 750.026C499.631 747.609 510.98 742.294 520.772 738.629C531.853 734.482 543.508 731.008 554.299 726.196C560.275 723.531 561.98 720.794 564.229 714.895C583.121 709.82 601.87 704.223 620.453 698.111C668.474 682.179 715.839 661.362 748.153 620.846C773.194 589.448 788.314 549.858 783.597 509.32C781.158 488.359 772.448 467.513 757.79 452.109C752.891 446.96 747.283 442.633 741.736 438.217C761.428 410.542 774.918 379.096 776.571 344.811C778.005 315.077 769.863 286.595 749.509 264.369C728.996 241.971 699.807 230.179 669.743 228.985C630.537 227.429 590.809 240.129 555.199 255.411C545.891 259.406 534.353 263.805 526.966 270.839C523.284 274.345 520.669 278.614 519.917 283.683C518.464 293.477 519.389 304.376 519.388 314.303L519.389 375.799C519.779 450.679 519.683 525.56 519.101 600.439C515.009 588.043 509.689 576.12 504.749 564.051L480.054 503.271C450.034 428.805 420.652 354.083 391.913 279.114C407.257 272.585 423.466 267.532 439.156 261.858C469.944 250.561 500.792 239.428 531.699 228.462L750.616 148.756C791.789 133.805 833.346 119.859 874.185 103.984Z"/><path fill="#FEFEFE" transform="scale(0.03125 0.03125)" d="M654.313 235.209C674.672 232.63 702.96 239.758 720.687 249.703C743.036 262.17 759.44 283.094 766.212 307.773C776.151 344.289 766.971 383.135 748.552 415.374C746.51 418.948 744.496 422.67 742.121 426.028C739.148 430.234 735.661 434.23 733.151 438.73C733.057 438.898 732.967 439.069 732.875 439.239C736.561 442.839 741.177 445.793 745.191 449.057C755.954 457.811 763.884 468.685 769.37 481.405C782.324 511.442 779.597 545.859 767.531 575.698C747.374 625.547 705.855 657.159 657.594 677.486C627.595 690.489 595.142 699.857 563.588 708.334C553.059 686.261 544.305 662.873 535.308 640.111C532.363 632.659 526.467 620.812 525.653 613.371C525.093 608.253 525.467 602.792 525.482 597.627L525.585 567.313L525.771 464.128L525.798 346.31L525.6 308.583C525.571 301.929 525.211 295.04 525.708 288.417C526.014 284.344 527.226 280.559 529.884 277.395C541.186 263.942 603.893 244.193 622.331 239.908C632.841 237.451 643.539 235.88 654.313 235.209Z"/><path transform="scale(0.03125 0.03125)" d="M647.828 272.715C658.129 271.658 670.063 272.787 680.104 275.041C697.735 278.997 715.893 288.713 725.636 304.432C737.141 322.992 738.291 347.155 733.264 367.943C722.592 412.066 694.44 439.772 657.136 462.672C668.832 462.071 680.638 461.337 692.248 463.365C708.244 466.16 723.172 475.961 732.402 489.291C744.561 506.85 746.66 528.915 742.817 549.492C736.685 582.326 715.846 606.375 688.952 624.713C684.823 627.513 680.479 630.12 676.121 632.548C665.808 638.293 654.87 643.01 643.903 647.352C634.743 650.978 569.604 673.929 563.512 671.772C562.653 671.468 562.084 670.814 561.746 669.97C560.041 665.712 560.749 600.732 560.746 591.892L560.86 419.512C560.878 380.185 560.074 340.746 560.624 301.432C560.658 298.989 560.801 296.61 561.542 294.267C567.143 289.678 614.942 277.089 623.774 275.443C631.715 273.962 639.781 273.299 647.828 272.715Z"/><path fill="#FEFEFE" transform="scale(0.03125 0.03125)" d="M652.502 278.714C659.125 278.687 665.939 279.19 672.47 280.228C689.896 282.997 708.042 291.138 718.524 305.872C729.799 321.719 731.618 342.088 728.384 360.772C720.253 407.757 680.434 448.138 636.806 464.956C629.978 467.588 606.369 473.559 602.637 476.538C601.449 477.487 601.251 478.02 601.038 479.491C601.37 480.229 601.441 480.802 602.172 481.237C603.465 482.007 605.045 481.973 606.494 481.758C617.308 480.153 630.424 473.445 642.577 471.358C666.476 467.253 693.3 464.944 714.12 479.76C727.364 489.186 734.828 503.692 737.479 519.505C741.516 543.588 733.209 568.17 719.38 587.749C687.104 632.687 617.546 650.202 567.052 665.718C566.412 635.116 567.277 604.324 567.179 573.698L567.13 298.625C574.272 295.731 581.869 293.633 589.232 291.36C610.441 284.814 630.258 279.904 652.502 278.714Z"/><path transform="scale(0.03125 0.03125)" d="M637.846 314.704C644.031 313.78 651.134 314.666 657.073 316.518C668.024 319.933 677.338 326.835 682.655 337.135C689.096 349.612 688.504 364.868 684.337 377.96C677.5 399.44 660.625 415.733 641.045 425.958C632.562 430.134 614.857 437.596 605.857 437.202C604.462 437.14 603.293 436.884 602.312 435.864C601.696 433.532 601.314 431.214 601.185 428.808C600.298 412.311 601.077 395.326 601.068 378.781C601.059 362.831 600.239 346.389 601.132 330.493C601.253 328.344 601.561 326.359 602.231 324.308C608.378 319.288 629.658 315.466 637.846 314.704Z"/><path fill="#2A2A2A" transform="scale(0.03125 0.03125)" d="M639.06 321.203C644.144 320.775 649.263 321.26 654.176 322.636C663.618 325.303 671.644 331.418 676.354 340.068C682.383 351.139 681.466 364.53 677.861 376.225C671.635 396.426 656.446 410.311 638.248 420.046C628.258 424.733 618.346 428.167 607.717 431.056C606.974 414.972 607.534 398.636 607.526 382.513C607.518 364.719 606.993 346.703 607.895 328.936C617.416 324.785 628.793 322.198 639.06 321.203Z"/><path transform="scale(0.03125 0.03125)" d="M652.038 505.179C659.779 504.071 669.058 505.16 676.393 507.84C684.741 510.892 692.449 516.803 696.092 525.079C700.71 535.57 698.832 550.216 694.659 560.566C685.303 583.766 660.16 597.736 638.332 606.985C631.456 609.813 609.768 618.826 603.526 617.293C602.002 615.527 601.664 612.551 601.46 610.299C600.346 598.038 601.218 585.129 601.214 572.781C601.207 555.335 600.49 537.559 601.621 520.146C610.824 514.673 641.002 506.677 652.038 505.179Z"/><path fill="#2A2A2A" transform="scale(0.03125 0.03125)" d="M653.641 511.181C660.071 510.127 667.18 511.625 673.248 513.717C680.182 516.108 686.608 520.274 689.802 527.148C693.86 535.881 692.088 547.464 688.73 556.174C679.852 579.196 658.132 591.072 636.781 600.466C627.194 604.397 617.33 607.776 607.509 611.073C607.683 582.167 607.691 553.26 607.532 524.354C620.9 519.438 639.636 513.055 653.641 511.181Z"/><path fill="#FEFEFE" transform="scale(0.03125 0.03125)" d="M376.442 272.975C377.626 273.01 379.144 273.136 380.257 273.57C381.639 274.109 382.466 274.959 383.151 276.233C385.614 280.812 387.254 286.027 389.11 290.885L398.871 316.452L429.602 395.227L525.298 633.261C531.558 649.225 537.944 665.139 544.457 681.001C548.425 690.598 553.296 700.402 556.401 710.295C556.9 711.886 557.578 713.776 556.956 715.401C555.964 717.996 552.448 719.871 550.069 720.932C546.205 722.654 541.98 723.863 537.993 725.292L515.328 733.513C506.932 736.581 498.078 740.978 489.449 743.064C487.231 743.6 484.491 744.003 482.324 743.061C478.75 741.509 442.095 636.725 436.712 624.158C400.172 636.349 363.868 649.44 327.449 662.012C326.18 665.774 325.23 669.68 324.168 673.507L295.594 771.511C291.437 785.593 287.952 800.248 283.107 814.085C282.529 815.734 281.979 817.238 280.669 818.454C278.964 820.036 276.762 821.153 274.652 822.081C264.685 826.463 253.989 829.714 243.794 833.583C232.439 837.893 221.072 843.2 209.443 846.656C207.434 847.253 205.321 847.7 203.215 847.496C201.722 847.351 200.244 846.826 199.354 845.536C198.262 843.953 198.884 841.457 199.276 839.744C200.915 832.565 203.789 825.394 205.928 818.311L222.738 763.615L269.049 614.182L326.388 428.667L352.531 341.754C358.22 322.585 363.45 303.196 369.632 284.18C371.195 279.373 371.927 275.799 376.442 272.975Z"/><path transform="scale(0.03125 0.03125)" d="M378.718 369.804C379.3 370.334 379.698 371.015 379.99 371.737C384.981 384.094 389.448 396.694 394.28 409.118L439.4 525.376C453.363 560.178 466.952 595.129 480.166 630.222C486.064 645.54 492.387 660.786 497.912 676.236C498.711 678.47 499.108 680.356 498.048 682.572C497.102 683.215 496.668 683.593 495.444 683.185C493.58 682.565 492.239 680.402 491.428 678.746C490.144 676.124 489.528 673.157 488.574 670.401C487.133 666.238 485.435 662.169 483.787 658.085C478.662 645.383 474.034 632.5 469.084 619.732C464.612 608.199 459.744 596.79 455.69 585.103L335.635 626.318C325.182 630.101 314.525 633.628 303.902 636.903C302.608 642.772 300.601 648.615 298.891 654.383L289.861 684.894L273.903 737.963C271.591 745.687 269.588 753.544 267.133 761.219C266.566 762.994 265.892 764.874 264.825 766.412C263.925 767.708 263.181 768.101 261.658 768.371C260.588 767.804 259.956 767.537 259.463 766.327C258.975 765.127 259.323 763.569 259.592 762.363C260.524 758.188 262.122 753.954 263.389 749.856C265.6 742.695 267.748 735.514 269.832 728.315L293.44 648.916L355.349 446.073C363.051 420.647 371.49 395.362 378.718 369.804Z"/><path fill="#FEFEFE" transform="scale(0.03125 0.03125)" d="M379.058 390.8C381.202 392.736 445.549 558.988 453.137 579.07C443.751 581.73 434.468 585.16 425.218 588.283L361.917 610.109C343.346 615.694 324.927 622.677 306.636 629.131C310.719 612.769 316.726 596.759 321.475 580.563C340.074 517.143 360.828 454.326 379.058 390.8Z"/><path transform="scale(0.03125 0.03125)" d="M381.297 478.237C381.993 478.799 382.474 479.393 382.818 480.231C387.667 492.041 391.721 504.259 396.216 516.212C401.96 531.485 408.097 546.618 413.745 561.924C403.614 566.582 385.791 570.855 374.485 574.196C366.095 576.45 357.835 579.411 349.526 581.97C352.407 567.381 358.105 552.714 362.452 538.48C366.787 524.128 371.254 509.815 375.854 495.546C377.686 489.807 379.186 483.872 381.297 478.237Z"/><path fill="#2A2A2A" transform="scale(0.03125 0.03125)" d="M381.959 498.321C385.515 503.264 389.237 515.893 391.561 522.075C396.102 534.155 401.143 546.259 405.003 558.568C395.926 561.209 386.871 563.929 377.84 566.727C371.807 568.061 365.747 570.301 359.781 571.999C366.287 547.307 374.121 522.63 381.959 498.321Z"/><path fill="white" transform="scale(0.03125 0.03125)" d="M855.605 684.051C858.924 686.114 866.793 694.733 870.389 698.043C861.185 702.94 851.174 706.749 841.555 710.745C827.878 716.381 814.247 722.127 800.663 727.983L635.684 798.024L325.304 930.471L236.037 968.835C215.953 977.545 195.929 986.567 175.625 994.746C170.181 991.469 164.983 985.273 160.449 980.81C183.575 969.934 207.499 960.559 231.008 950.53L354.548 897.679L681.576 758.123C739.56 733.428 797.99 709.585 855.605 684.051Z"/><path fill="white" transform="scale(0.03125 0.03125)" d="M829.076 36.9628C832.373 37.7233 842.286 48.5497 845.162 51.3163L399.941 213.274L242.882 270.809C224.762 277.354 206.756 284.267 188.502 290.429C183.008 285.588 177.34 280.949 171.508 276.522C188.512 269.347 206.531 263.709 223.912 257.441L318.483 223.029L648.163 103.125L764.298 61.0189C785.904 53.1432 807.807 45.7115 829.076 36.9628Z"/><path fill="white" transform="scale(0.03125 0.03125)" d="M144.371 285.7C153.24 291.921 161.409 299.137 169.749 306.036C177.873 312.64 186.062 319.162 194.317 325.602C186.213 384.888 176.888 444.074 168.038 503.253L117.593 845.426C112.105 883.399 106.056 921.254 100.901 959.282C97.7655 958.831 87.21 949.269 84.2602 946.905C84.8204 938.079 86.5844 929.123 87.8819 920.365C90.3997 903.329 93.0053 886.306 95.6988 869.297L114.787 740.191L174.22 335.815C163.833 325.964 151.937 317.496 141.085 308.128C142.126 300.644 143.221 293.168 144.371 285.7Z"/><path fill="white" transform="scale(0.03125 0.03125)" d="M137.216 336.166C142.747 338.748 149.172 344.922 154.196 348.812L143.189 423.603L110.704 643.862L80.4967 848.724C76.2465 876.942 72.2722 905.226 67.6415 933.383C65.1904 933.429 53.5568 922.67 51.1398 920.605C51.7704 913.986 53.0515 907.339 54.0632 900.765L59.9229 862.919L73.9693 766.963L119.776 454.201C125.487 414.869 132.048 375.566 137.216 336.166Z"/><path fill="white" transform="scale(0.03125 0.03125)" d="M929.836 67.2481C935.315 71.532 940.211 76.9555 945.141 81.8509C939.761 110.69 936.226 140.033 931.743 169.041L901.805 359.361L868.009 570.041C863.654 598.514 857.568 627.122 854.692 655.772L846.903 659.002C843.049 660.652 839.151 662.198 835.214 663.638C838.512 647.409 840.367 630.732 842.935 614.365C848.392 581.094 853.674 547.795 858.782 514.468L901.055 251.761L918.362 140.336C921.864 115.924 925.689 91.559 929.836 67.2481Z"/><path fill="white" transform="scale(0.03125 0.03125)" d="M961.188 94.8096C966.902 98.9007 972.175 104.162 977.409 108.847C967.097 168.708 958.699 228.965 949.389 288.992L907.557 553.064C900.978 594.77 895.42 636.769 888.033 678.332C885.972 678.332 874.325 667.011 871.924 664.856L924.94 329.996L949.58 171.197C953.477 145.749 956.901 120.193 961.188 94.8096Z"/></svg>